<svg xmlns="http://www.w3.org/2000/svg" width="175" height="176" viewBox="0 0 175 176">
  <path fill="#000" stroke="#000" d="M34.435,6.9L32.2,8.788C34.406,6.924,22.03,12.3,37.324,19.68A38.761,38.761,0,0,0,47.39,22.832c7.634,0.788,4.706,1.182,8.758-1.224,4.187-2.486,4.479-2.4,10-.825,6.811,1.944,5.655,1.9,9.689.053,5.12-2.349,4.2-2.126,8.329-1.1a40.969,40.969,0,0,0,8.722,1.07c-1.377.055,35.44,4.555,38.139,4.7,3.79,0.21,7.907,1.158,12.683-.333,5.121-1.6,9.926-6.707,7.192-11.018-0.781-1.232-1.564-2.341-1.564-2.341l0.741-2.034c0.891-2.444.84-1.491,0.154-2.86l-0.9-1.786s-0.1.921-.2,1.769c-0.207,1.86.315,0.912-1.729,3.568-1.817,2.36-1.546,1.361-.5,3.473a25.93,25.93,0,0,1,1.019,2.44l-3.692.837c-5.416,1.228-3.822.891-11.8-.339-4.6-.71-9.536-1.553-9.536-1.553L112.81,13.18a122.167,122.167,0,0,0-20.986-1.874l-9.808.163s-7.552.621-11.156-1.076C63.218,6.8,54.584,6.964,46.294,11.63c-2.909,1.637-5.867,3.707-5.867,3.707L36.744,13.73c-2.608-1.138-1.749-.3-2.575-2.5-0.584-1.553-.575-0.553-0.029-3Z"></path>
  <path fill="#000" stroke="#000" d="M59.812,35.376A67.874,67.874,0,0,1,70.385,39.6a20.887,20.887,0,0,1,5.286,4.219s2.18-1.443,7.247-2.086c4.62-.586,11.7-0.276,20.5-2.158a18.527,18.527,0,0,0,7.521-3.789c2.744-1.924,5.614-3.92,5.614-3.92L106.932,34.8a86.167,86.167,0,0,1-18.8,2.335,105.016,105.016,0,0,1-11.539-.64c-2.48-.4-7.109-0.834-9.5-0.9Z"></path>
  <path fill="#000" stroke="#000" d="M0.815,36.345C2.713,24.8,1.611,24.826,6,15a66.011,66.011,0,0,1,5.01-9.522l2.63-3.149,1.185,5.066c1.1,4.689.144,4.491,5.669,9.3l15,13.056L63.432,51.336c9.26,7.154,8.593,5.668,14.986,6.842l2.188,0.4,13.041,0.7,5.639-.352,10.573-5.274,13.394-9.844,13.393-10.2,14.45-11.6,6.065-6.655c3.77-4.136,4.708-6.511,5.275-10.949C162.732,2.1,163,0,163,0a18.806,18.806,0,0,1,6.915,9.247,98.881,98.881,0,0,1,3.067,12.18c0.348,1.844-3.588-6.468-3.379-4.881s4.56,13.049,4.612,14.192c0.009,0.194.016,0.38,0.02,0.558,0.087,3.8,1.392,7.266.4,12.95C169.84,71.852,173.064,62.8,169,72c-1.1,2.5-3.15,9.273-4.432,12.178a283.765,283.765,0,0,1-16.546,30.578c-0.33.538,2.8-17.061,2.158-15.828-0.63,1.212-5.031,21.255-5.369,21.789-2.7,4.251-5.605,8.557-8.68,12.73C134,136.337,130.979,141.31,129,144c-0.379.516,0.6-8.392,0.628-15.71,0.027-8.391-.966-22.522-1.628-22.29-0.509.178,0.181,13.147-.093,21.326C127.625,135.79,126.382,146.48,126,147c-7.2,9.8-12.953,17.865-12.726,17.553C109.375,169.9,105,176,105,176a145.181,145.181,0,0,0-16.886-4.324c-1.188-.217-3.166.331-4.835-0.44-0.763-.353-3.993-9.63-5.036-17.987-0.964-7.731.252-14.6-.36-14.75-0.551-.136-0.992,7.183-0.36,14.75,0.674,8.068,2.428,16.417,1.944,16.288-8.8-2.344-9.663-3.686-18.28-11.493-6.389-5.788-13.941-14.616-16.469-18.888-0.263-.444-12.827-21.426-24.625-40.841q-0.462-.759-0.92-1.528A79.958,79.958,0,0,1,16.737,84.9c-0.464-3.572-.157-6.485-0.36-6.835-0.271-.468-1.126,2.675-1.079,6.116,0.05,3.672,1,7.659.72,7.155A132.224,132.224,0,0,1,3.591,59.969C2.943,57.829,2.39,56,1.927,54.395c-0.188-.652-0.095-11.959-0.254-12.544-0.152-.559-0.557,9.6-0.683,9.09C-0.308,45.684-.244,42.793.815,36.345Z"></path>
</svg>